# xmcd
#
# Track frame offsets:
#	150
#	15570
#	37766
#	54042
#	76533
#	86680
#	99141
#	118761
#	132226
#	153083
#	169238
#	181510
#	190930
#	214296
#	229396
#	244037
#	270101
#	302285
#
# Disc length: 4450 seconds
#
# Revision: 0
# Processed by: cddbd v1.5.1PL0 Copyright (c) Steve Scherf et al.
# Submitted via: dBpowerAMP V4.0
#
DISCID=c6116012
DTITLE=Woodbox Gang - Born With a Tail
DYEAR=2003
DGENRE=Americana
TTITLE0=All Trouble Head
TTITLE1=Born With a Tail
TTITLE2=One That Got Away
TTITLE3=Drifter's Ghost
TTITLE4=Debtor's Prison
TTITLE5=Gingerbread Man
TTITLE6=Poor Jesus
TTITLE7=Bad Men
TTITLE8=Snake in the Grass
TTITLE9=God Fearin' Woman
TTITLE10=Never Kissed a Girl
TTITLE11=Big Bang Yin Yang
TTITLE12=665
TTITLE13=Togey Water
TTITLE14=Sinner's Love
TTITLE15=Let 'em Break Your Bones
TTITLE16=Checkpoint Charlie
TTITLE17=Butterfly
EXTD=
EXTT0=
EXTT1=
EXTT2=
EXTT3=
EXTT4=
EXTT5=
EXTT6=
EXTT7=
EXTT8=
EXTT9=
EXTT10=
EXTT11=
EXTT12=
EXTT13=
EXTT14=
EXTT15=
EXTT16=
EXTT17=
PLAYORDER=
